<?xml version="1.0" encoding="UTF-8"?>
<svg id="Layer_2" data-name="Layer 2" xmlns="http://www.w3.org/2000/svg" xmlns:xlink="http://www.w3.org/1999/xlink" viewBox="0 0 239.55 287.96">
  <defs>
    <style>
      .cls-1 {
        fill: url(#linear-gradient);
      }

      .cls-2 {
        font-family: Helvetica, Helvetica;
        font-size: 26.71px;
      }

      .cls-3 {
        fill: url(#linear-gradient-2);
      }

      .cls-4 {
        font-size: 43.19px;
      }

      .cls-4, .cls-5 {
        font-family: Impact, Impact;
      }

      .cls-5 {
        font-size: 22.64px;
      }
    </style>
    <linearGradient id="linear-gradient" x1="23.83" y1="96.49" x2="124.2" y2="96.49" gradientUnits="userSpaceOnUse">
      <stop offset="0" stop-color="#0082c6"/>
      <stop offset="1" stop-color="#00bdc6"/>
    </linearGradient>
    <linearGradient id="linear-gradient-2" x1="58.52" y1="160.66" x2="194.59" y2="154.42" gradientUnits="userSpaceOnUse">
      <stop offset="0" stop-color="#e56f0e"/>
      <stop offset=".53" stop-color="#fead43"/>
      <stop offset="1" stop-color="#e56f0e"/>
    </linearGradient>
  </defs>
  <g id="Layer_1-2" data-name="Layer 1">
    <g>
      <g>
        <path class="cls-1" d="m47.3,192.98c-.39-.73-.93-1.42-1.63-2.1-6.53-6.35-12.31-13.3-16.51-21.48-7.49-14.6-7.11-28.83,1.38-42.97,7.11-11.84,16.81-21.35,26.6-30.84,12.38-12.01,25.66-23.18,35.55-37.52,6.99-10.14,11.64-21.04,9.74-33.76-1.15-7.71-4.12-14.74-8.36-21.26-.43-.66-.84-1.34-1.24-2.02-.03-.06.03-.19.16-1.03,10.33,7.15,19.09,15.33,25.43,25.69,8.33,13.6,7.2,27.45-.5,40.95-7.73,13.57-18.86,24.33-29.84,35.17-11.38,11.23-23.16,22.09-32.57,35.12-6.01,8.31-10.85,17.19-12.22,27.64-1.26,9.67,1.28,18.39,5.92,26.7"/>
        <path class="cls-3" d="m57.75,193.89c.37-5.21,1.16-10.38,2.83-15.5,6.96-21.37,24.22-34.81,45.58-37.94,16-2.34,30.91,1.51,44.81,9.41,16.39,9.33,28.41,23.01,38.71,38.58,1.19,1.8,2.29,3.61,3.25,5.44.59-1.09-16.41-50.5-37.7-63.59-14.95-9.19-31.12-13.69-48.71-10.77-25.48,4.23-43.38,26.18-47.92,50.95-1.28,6.97-3.08,14.07-1.93,21,.14.84,1.08,2.4,1.08,2.4Z"/>
      </g>
      <text class="cls-4" transform="translate(0 223.97)"><tspan x="0" y="0">Polyclinique</tspan></text>
      <text class="cls-5" transform="translate(0 248.56)"><tspan x="0" y="0">Internationale de Rabat</tspan></text>
      <text class="cls-2" transform="translate(79.08 275.11)"><tspan x="0" y="0">Maroc</tspan></text>
    </g>
  </g>
</svg>