<?xml version="1.0" encoding="UTF-8"?>
<svg id="Layer_2" data-name="Layer 2" xmlns="http://www.w3.org/2000/svg" viewBox="0 0 129.16 145.96">
  <g id="Layer_1-2" data-name="Layer 1">
    <g>
      <path d="m126.99,23.23c-3.29-.72-6.58-1.44-9.81-2.4-12.74-3.8-24.85-9.12-36.49-15.52-4.66-2.56-9.46-4.79-14.87-5.25-4.61-.39-8.74,1.22-12.75,3.21-7.9,3.93-15.69,8.11-23.87,11.43-8.88,3.6-17.96,6.68-27.36,8.65C.46,23.64-.05,24.27,0,25.64c.07,1.79.02,3.59.02,5.38.35,9.51,1.29,18.97,3.24,28.23,3.44,16.35,8.94,31.96,18.16,46.13,10.78,16.54,24.19,30.25,41.46,40.03,1.06.6,1.94.82,3.11.12,22.44-13.45,38.44-32.67,49.69-56,6.57-13.63,10.22-28.16,12.02-43.18.81-6.8,1.14-13.62,1.45-20.46.08-1.7-.64-2.32-2.17-2.66Zm-4.62,8.53c-.56,15.91-3.25,31.43-8.71,46.41-8.63,23.69-22.88,43.17-43.7,57.58-6.02,4.16-4.43,4.42-10.68.35-13.71-8.91-24.62-20.61-33.1-34.53-8.31-13.64-13.9-28.33-16.76-44.09-1.64-9.03-2.29-18.12-2.75-27.25-.07-1.35.37-1.99,1.74-2.35,15.98-4.15,31.14-10.37,45.69-18.17,1.92-1.03,4.01-1.73,6.05-2.52,4.21-1.63,8.25-.71,12.12,1.11,6.65,3.14,13.19,6.53,19.86,9.63,8.78,4.07,17.96,7.07,27.29,9.59q3.16.85,2.97,4.24Z"/>
      <path d="m64.26,38.35c-17.25.05-31.83,14.49-31.65,32.39.17,17.09,14.64,31.43,32.06,31.45,17.4.01,31.82-14.41,31.82-31.83,0-17.79-14.32-32.05-32.23-32Zm-.82,57.5c-13.51-.24-24.43-11.56-24.43-25.73,0-14.56,11.15-25.4,26.18-25.38,13.74.02,25.02,11.33,24.96,25.61-.06,13.44-10.38,25.8-26.71,25.51Z"/>
      <path d="m78.91,67.04c-3.05.09-6.12-.05-9.17.06-1.5.05-2.15-.26-2.03-1.93.15-2.05.04-4.12.04-6.18,0-4.91,0-4.87-4.95-4.72-1.13.03-1.47.36-1.44,1.48.07,3.26-.03,6.51.05,9.77.03,1.26-.41,1.6-1.6,1.56-2.19-.08-4.39-.02-6.58-.02-4.74,0-4.68,0-4.65,4.84,0,1.26.37,1.57,1.57,1.54,3.26-.07,6.51.02,9.77-.04,1.11-.02,1.52.31,1.48,1.47-.08,2.19-.02,4.39-.02,6.58,0,4.86,0,4.82,4.91,4.78,1.09-.01,1.55-.22,1.48-1.41-.1-1.66-.03-3.32-.03-4.98h0c0-1.66.07-3.33-.02-4.98-.06-1.18.41-1.47,1.5-1.44,2.19.07,4.39.02,6.58.03,4.8,0,4.75,0,4.75-4.71,0-1.27-.3-1.73-1.64-1.69Z"/>
    </g>
  </g>
</svg>