<?xml version="1.0" encoding="UTF-8"?>
<svg id="Layer_2" data-name="Layer 2" xmlns="http://www.w3.org/2000/svg" viewBox="0 0 146.78 146.71">
  <g id="Layer_1-2" data-name="Layer 1">
    <g>
      <path d="m146.12,64.21c-1.76-13.3-6.52-25.41-14.99-35.81C113.76,7.09,91.3-2.49,63.88.74c-15.24,1.8-28.48,8.4-39.82,18.76-.44.4-.72,1.18-1.66.92,0-.73,0-1.45,0-2.18,0-4.79.04-9.58-.02-14.37-.04-3.05-2.39-4.75-4.66-3.42-1.35.79-1.69,2.16-1.69,3.6-.01,8.71.03,17.43-.04,26.14-.01,1.38.48,1.61,1.7,1.61,8.51-.04,17.03-.01,25.54-.02.66,0,1.32-.1,1.96-.24,1.55-.34,2.5-1.41,2.55-2.92.04-1.57-.99-2.46-2.51-2.91-.99-.29-1.97-.28-2.96-.28-5.09-.01-10.18,0-15.68,0,.41-.6.5-.78.64-.91,10.44-9.45,22.39-15.71,36.53-17.55,8.59-1.12,17.11-1,25.5,1.05,34.69,8.47,56.23,41.22,50.37,76.88-2.14,13.04-7.76,24.52-16.82,34.09-17.36,18.34-38.96,24.64-63.33,19.91-27.57-5.35-49.02-27.75-52.61-57.67-1.44-12.01.15-23.66,5.13-34.77,1.75-3.91,1.71-3.9-2.23-5.88-1.09-.55-1.63-.31-2.17.77C.58,55.66-1.79,70.65,1.39,86.34c4.04,19.96,14.21,36.07,31.17,47.49,17.09,11.51,35.91,15.56,56.13,11.11,16.86-3.72,31.13-12.15,41.83-25.89,12.55-16.12,18.32-34.3,15.61-54.84Z"/>
      <path d="m96.2,48.61c-1.14-.02-1.82.53-2.41,1.44-5.51,8.45-11.05,16.87-16.19,25.55-1.28,2.17-1.76,4.3-1.78,6.77-.01,2.01.68,2.47,2.55,2.4,5.18-.19,10.36-.39,15.54-.07q3.91.24,3.91,4.15c0,4.94,0,4.9,4.95,4.75,1.24-.04,1.7-.56,1.7-1.65,0-1.53-.06-3.06-.09-4.58-.07-2.62-.07-2.54,2.53-2.54,4.32,0,3.66.74,3.74-3.58.04-2.64.02-2.64-2.53-2.53-.73.03-1.47,0-2.19.06-1.35.14-1.72-.51-1.71-1.76.05-4.38.02-8.77.02-13.15.03,0,.06,0,.09,0,0-4.52-.02-9.04.01-13.56,0-1.14-.29-1.74-1.56-1.7-2.19.06-4.39.04-6.58,0Zm.38,30.31c-4.18-.05-8.36-.05-12.54-.06-1.29,0-1.73-.44-.97-1.66,4.66-7.53,9.24-15.12,14.41-22.62.58.96.43,1.76.44,2.52.03,6.77,0,13.53.09,20.3.01,1.15-.3,1.54-1.43,1.52Z"/>
      <path d="m48.4,85.7c2.58-2.68,5.24-5.29,7.77-8.02,2.98-3.21,6.17-6.25,8.58-9.95,4.01-6.13,2.83-13.19-2.92-17.43-2.36-1.74-5.1-2.44-7.99-2.69-7.02-.62-13.22,2.57-15.81,9.15-1.77,4.51-1.44,4.95,3.29,4.86.07,0,.14-.02.2,0,1.64.31,2.17-.54,2.43-2.03.59-3.41,2.75-5.41,6.1-5.88,4.34-.62,7.96.84,9.48,3.84.21.41.36.85.47,1.3.88,3.44-.49,6.26-2.61,8.77-5.66,6.71-11.96,12.82-18.07,19.1-1.27,1.31-1.75,2.65-1.8,4.42-.05,1.78.42,2.51,2.34,2.45,4.32-.13,8.64-.04,12.96-.04v.04c3.59,0,7.18.05,10.77-.01,5.18-.09,4.09.61,4.31-4.36.07-1.67-.58-1.98-2.07-1.96-5.58.07-11.17.03-16.75,0-.49,0-1.18.28-1.44-.3-.27-.6.4-.9.75-1.26Z"/>
      <path d="m137.31,73.34c0-1.46-1.68-3.21-3.06-3.17-1.59.05-3.1,1.54-3.12,3.08-.02,1.51,1.54,3.1,3.06,3.13,1.55.03,3.11-1.49,3.11-3.05Z"/>
      <path d="m73.65,130.87c-1.59,0-3.16,1.46-3.19,2.99-.03,1.54,1.52,3.18,3,3.18,1.5,0,3.09-1.59,3.1-3.1,0-1.41-1.56-3.06-2.91-3.07Z"/>
      <path d="m73.58,9.65c-1.61-.02-3.13,1.41-3.15,2.96-.02,1.49,1.6,3.11,3.06,3.09,1.5-.02,3.08-1.63,3.07-3.12-.02-1.41-1.55-2.92-2.99-2.94Z"/>
      <path d="m106.87,20.58c-.08-1.47-1.58-2.87-3.04-2.84-1.6.02-3.07,1.49-3.04,3.05.03,1.5,1.67,3.05,3.14,2.98,1.54-.08,3.02-1.69,2.94-3.19Z"/>
      <path d="m9.83,73.13c-.04,1.59,1.45,3.17,2.98,3.18,1.54,0,3.13-1.58,3.09-3.09-.04-1.42-1.63-2.99-3-2.96-1.57.03-3.03,1.4-3.06,2.87Z"/>
      <path d="m126.02,106.57c1.77-.05,2.99-1.29,2.98-3.04-.01-1.63-1.31-2.91-2.91-2.88-1.55.03-3.05,1.39-3.1,2.82-.05,1.48,1.57,3.14,3.03,3.1Z"/>
      <path d="m40.16,125.8c.03,1.69,1.4,3.03,3.06,3.01,1.52-.02,2.98-1.41,3.01-2.88.03-1.44-1.7-3.15-3.12-3.08-1.58.08-2.99,1.49-2.96,2.95Z"/>
      <path d="m103.76,122.84c-1.56.08-2.94,1.48-2.94,2.97,0,1.64,1.42,3,3.1,2.97,1.51-.02,3-1.46,3-2.89,0-1.42-1.76-3.12-3.16-3.05Z"/>
      <path d="m128.99,43.01c.02-1.57-1.31-3.02-2.78-3.04-1.58-.02-3.17,1.43-3.2,2.93-.03,1.38,1.49,2.98,2.88,3.03,1.67.06,3.08-1.27,3.1-2.92Z"/>
      <path d="m23.97,103.7c.06-1.46-1.56-3.04-3.08-3-1.6.04-2.91,1.35-2.91,2.91,0,1.54,1.36,3.04,2.79,3.08,1.47.04,3.14-1.52,3.2-2.98Z"/>
    </g>
  </g>
</svg>